<svg aria-hidden="true" style="position: absolute; width: 0; height: 0; overflow: hidden;" version="1.1" xmlns="http://www.w3.org/2000/svg" xmlns:xlink="http://www.w3.org/1999/xlink">
<defs>
<symbol id="icon-blackCross" viewBox="0 0 31 32">
<path d="M18.051 16l12.058-12.058c0.238-0.278 0.363-0.636 0.349-1.002s-0.166-0.713-0.425-0.972c-0.259-0.259-0.606-0.411-0.972-0.425s-0.724 0.11-1.002 0.349l-12.058 12.058-12.058-12.073c-0.274-0.274-0.645-0.428-1.033-0.428s-0.759 0.154-1.033 0.428c-0.274 0.274-0.428 0.645-0.428 1.033s0.154 0.759 0.428 1.033l12.073 12.058-12.073 12.058c-0.152 0.13-0.276 0.291-0.363 0.471s-0.136 0.377-0.144 0.577 0.026 0.4 0.099 0.587c0.073 0.187 0.184 0.356 0.326 0.498s0.311 0.253 0.498 0.326 0.386 0.107 0.587 0.099c0.2-0.008 0.397-0.057 0.577-0.144s0.341-0.211 0.471-0.363l12.073-12.058 12.058 12.058c0.278 0.238 0.636 0.363 1.002 0.349s0.713-0.166 0.972-0.425 0.411-0.606 0.425-0.972c0.014-0.366-0.11-0.724-0.349-1.002l-12.058-12.058z"></path>
</symbol>
<symbol id="icon-burgerMenu" viewBox="0 0 48 32">
<path d="M0 32h48v-5.333h-48v5.333zM0 18.667h48v-5.333h-48v5.333zM0 0v5.333h48v-5.333h-48z"></path>
</symbol>
<symbol id="icon-dustbinEmpty" viewBox="0 0 29 32">
<path fill="#f59256" style="fill: var(--color1, #f59256)" d="M12.364 5.091h4.364c0-0.579-0.23-1.134-0.639-1.543s-0.964-0.639-1.543-0.639c-0.579 0-1.134 0.23-1.543 0.639s-0.639 0.964-0.639 1.543zM10.182 5.091c0-1.157 0.46-2.267 1.278-3.086s1.928-1.278 3.086-1.278c1.157 0 2.267 0.46 3.086 1.278s1.278 1.928 1.278 3.086h8.727c0.289 0 0.567 0.115 0.771 0.32s0.32 0.482 0.32 0.771-0.115 0.567-0.32 0.771c-0.204 0.205-0.482 0.32-0.771 0.32h-1.231l-2.629 19.283c-0.178 1.307-0.824 2.505-1.818 3.372s-2.268 1.345-3.587 1.345h-7.654c-1.319 0-2.593-0.478-3.587-1.345s-1.639-2.065-1.818-3.372l-2.629-19.283h-1.231c-0.289 0-0.567-0.115-0.771-0.32s-0.32-0.482-0.32-0.771c0-0.289 0.115-0.567 0.32-0.771s0.482-0.32 0.771-0.32h8.727zM12.364 12.727c0-0.289-0.115-0.567-0.32-0.771s-0.482-0.32-0.771-0.32c-0.289 0-0.567 0.115-0.771 0.32s-0.32 0.482-0.32 0.771v10.909c0 0.289 0.115 0.567 0.32 0.771s0.482 0.32 0.771 0.32 0.567-0.115 0.771-0.32c0.205-0.204 0.32-0.482 0.32-0.771v-10.909zM17.818 11.636c-0.289 0-0.567 0.115-0.771 0.32s-0.32 0.482-0.32 0.771v10.909c0 0.289 0.115 0.567 0.32 0.771s0.482 0.32 0.771 0.32 0.567-0.115 0.771-0.32c0.205-0.204 0.32-0.482 0.32-0.771v-10.909c0-0.289-0.115-0.567-0.32-0.771s-0.482-0.32-0.771-0.32z"></path>
</symbol>
<symbol id="icon-dustbinFull" viewBox="0 0 29 32">
<path d="M12.364 5.091h4.364c0-0.579-0.23-1.134-0.639-1.543s-0.964-0.639-1.543-0.639c-0.579 0-1.134 0.23-1.543 0.639s-0.639 0.964-0.639 1.543zM10.182 5.091c0-1.157 0.46-2.267 1.278-3.086s1.928-1.278 3.086-1.278c1.157 0 2.267 0.46 3.086 1.278s1.278 1.928 1.278 3.086h8.727c0.289 0 0.567 0.115 0.771 0.32s0.32 0.482 0.32 0.771-0.115 0.567-0.32 0.771c-0.204 0.205-0.482 0.32-0.771 0.32h-1.231l-2.629 19.283c-0.178 1.307-0.824 2.505-1.818 3.372s-2.268 1.345-3.587 1.345h-7.654c-1.319 0-2.593-0.478-3.587-1.345s-1.639-2.065-1.818-3.372l-2.629-19.283h-1.231c-0.289 0-0.567-0.115-0.771-0.32s-0.32-0.482-0.32-0.771c0-0.289 0.115-0.567 0.32-0.771s0.482-0.32 0.771-0.32h8.727zM12.364 12.727c0-0.289-0.115-0.567-0.32-0.771s-0.482-0.32-0.771-0.32c-0.289 0-0.567 0.115-0.771 0.32s-0.32 0.482-0.32 0.771v10.909c0 0.289 0.115 0.567 0.32 0.771s0.482 0.32 0.771 0.32 0.567-0.115 0.771-0.32c0.205-0.204 0.32-0.482 0.32-0.771v-10.909zM17.818 11.636c-0.289 0-0.567 0.115-0.771 0.32s-0.32 0.482-0.32 0.771v10.909c0 0.289 0.115 0.567 0.32 0.771s0.482 0.32 0.771 0.32 0.567-0.115 0.771-0.32c0.205-0.204 0.32-0.482 0.32-0.771v-10.909c0-0.289-0.115-0.567-0.32-0.771s-0.482-0.32-0.771-0.32z"></path>
</symbol>
<symbol id="icon-female" viewBox="0 0 21 32">
<path fill="#ff8787" style="fill: var(--color2, #ff8787)" d="M10.667 0c-5.676 0-10.279 4.603-10.279 10.279 0 4.7 3.157 8.665 7.465 9.889 0.492 0.14 0.856 0.573 0.856 1.084v1.362c0 0.589-0.478 1.067-1.067 1.067h-2.275c-0.589 0-1.067 0.478-1.067 1.067v1.78c0 0.589 0.478 1.067 1.067 1.067h2.275c0.589 0 1.067 0.478 1.067 1.067v2.273c0 0.589 0.478 1.067 1.067 1.067h1.78c0.589 0 1.067-0.478 1.067-1.067v-2.273c0-0.589 0.478-1.067 1.067-1.067h2.275c0.589 0 1.067-0.478 1.067-1.067v-1.78c0-0.589-0.478-1.067-1.067-1.067h-2.275c-0.589 0-1.067-0.478-1.067-1.067v-2.242c4.741-0.914 8.323-5.085 8.323-10.093 0-5.676-4.603-10.279-10.279-10.279zM10.667 4.087c3.419 0 6.192 2.772 6.192 6.192s-2.772 6.192-6.192 6.192c-3.42 0-6.192-2.772-6.192-6.192s2.772-6.192 6.192-6.192z"></path>
</symbol>
<symbol id="icon-heartEmpty" viewBox="0 0 35 32">
<path fill="#fff" style="fill: var(--color3, #fff)" opacity="0.6" d="M9.333 1.333c-4.418 0-8 3.645-8 8.142 0 3.63 1.4 12.246 15.181 20.955 0.247 0.154 0.53 0.236 0.819 0.236s0.572-0.082 0.819-0.236c13.781-8.709 15.181-17.325 15.181-20.955 0-4.497-3.582-8.142-8-8.142s-8 4.935-8 4.935c0 0-3.582-4.935-8-4.935z"></path>
<path fill="none" stroke="#f59256" style="stroke: var(--color1, #f59256)" stroke-linejoin="round" stroke-linecap="round" stroke-miterlimit="4" stroke-width="2.6667" d="M9.333 1.333c-4.418 0-8 3.645-8 8.142 0 3.63 1.4 12.246 15.181 20.955 0.247 0.154 0.53 0.236 0.819 0.236s0.572-0.082 0.819-0.236c13.781-8.709 15.181-17.325 15.181-20.955 0-4.497-3.582-8.142-8-8.142s-8 4.935-8 4.935c0 0-3.582-4.935-8-4.935z"></path>
</symbol>
<symbol id="icon-heartFull" viewBox="0 0 35 32">
<path fill="#f59256" style="fill: var(--color1, #f59256)" d="M9.333 1.333c-4.418 0-8 3.645-8 8.142 0 3.63 1.4 12.246 15.181 20.955 0.247 0.154 0.53 0.236 0.819 0.236s0.572-0.082 0.819-0.236c13.781-8.709 15.181-17.325 15.181-20.955 0-4.497-3.582-8.142-8-8.142s-8 4.935-8 4.935c0 0-3.582-4.935-8-4.935z"></path>
<path fill="none" stroke="#f59256" style="stroke: var(--color1, #f59256)" stroke-linejoin="round" stroke-linecap="round" stroke-miterlimit="4" stroke-width="2.6667" d="M9.333 1.333c-4.418 0-8 3.645-8 8.142 0 3.63 1.4 12.246 15.181 20.955 0.247 0.154 0.53 0.236 0.819 0.236s0.572-0.082 0.819-0.236c13.781-8.709 15.181-17.325 15.181-20.955 0-4.497-3.582-8.142-8-8.142s-8 4.935-8 4.935c0 0-3.582-4.935-8-4.935z"></path>
</symbol>
<symbol id="icon-humanIconBtn" viewBox="0 0 32 32">
<path fill="#fff" style="fill: var(--color3, #fff)" d="M16 0.445c-8.587 0-15.556 6.969-15.556 15.556s6.969 15.556 15.556 15.556c8.587 0 15.555-6.969 15.555-15.556s-6.969-15.556-15.555-15.556zM16 6.667c3.002 0 5.444 2.442 5.444 5.444s-2.442 5.444-5.444 5.444c-3.002 0-5.444-2.442-5.444-5.444s2.442-5.444 5.444-5.444zM16 28.445c-3.158 0-6.891-1.276-9.551-4.48 2.725-2.138 6.088-3.3 9.551-3.3s6.826 1.162 9.551 3.3c-2.66 3.204-6.393 4.48-9.551 4.48z"></path>
</symbol>
<symbol id="icon-loupe" viewBox="0 0 32 32">
<path d="M22.222 19.556h-1.404l-0.498-0.48c1.742-2.027 2.791-4.658 2.791-7.52 0-6.382-5.173-11.556-11.556-11.556s-11.556 5.173-11.556 11.556c0 6.382 5.173 11.556 11.556 11.556 2.862 0 5.493-1.049 7.52-2.791l0.48 0.498v1.404l8.889 8.871 2.649-2.649-8.871-8.889zM11.556 19.556c-4.427 0-8-3.573-8-8s3.573-8 8-8c4.427 0 8 3.573 8 8s-3.573 8-8 8z"></path>
</symbol>
<symbol id="icon-male" viewBox="0 0 32 32">
<path fill="#23c2ef" style="fill: var(--color4, #23c2ef)" d="M20.607 0c-0.655 0-1.185 0.531-1.185 1.185v2.085c0 0.655 0.531 1.185 1.185 1.185h3.708l-6.45 6.367c-1.81-1.164-3.967-1.839-6.283-1.839-6.396 0-11.581 5.152-11.581 11.508s5.186 11.509 11.581 11.509 11.58-5.153 11.58-11.509c0-2.416-0.749-4.658-2.029-6.509l6.342-6.302v3.635c0 0.655 0.531 1.185 1.185 1.185h2.113c0.655 0 1.185-0.53 1.186-1.185 0.006-3.243 0.034-6.893 0.040-10.13 0.001-0.654-0.529-1.185-1.184-1.185h-10.208zM11.581 13.615c3.822 0 6.919 3.078 6.919 6.876s-3.097 6.877-6.919 6.877c-3.822 0-6.92-3.079-6.92-6.877s3.098-6.876 6.92-6.876z"></path>
</symbol>
<symbol id="icon-plus" viewBox="0 0 32 32">
<path fill="none" stroke="#fff" style="stroke: var(--color3, #fff)" stroke-linejoin="miter" stroke-linecap="round" stroke-miterlimit="4" stroke-width="3.5556" d="M16 30.222v-14.222M16 16v-14.222M16 16h14.222M16 16h-14.222"></path>
</symbol>
<symbol id="icon-profileCheckMark" viewBox="0 0 42 32">
<path  d="M40.7 1.018c1.477 1.406 1.534 3.743 0.128 5.22l-23.434 24.615c-0.697 0.732-1.663 1.146-2.674 1.146s-1.977-0.414-2.674-1.146l-11.028-11.584c-1.406-1.477-1.349-3.814 0.128-5.22s3.814-1.349 5.22 0.128l8.353 8.775 20.76-21.806c1.406-1.477 3.743-1.534 5.22-0.128z"></path>
</symbol>
<symbol id="icon-profilePencil" viewBox="0 0 32 32">
<path d="M3.169 30.398c-0.218-0-0.433-0.046-0.632-0.134s-0.378-0.216-0.524-0.377c-0.149-0.159-0.263-0.349-0.334-0.555s-0.098-0.426-0.078-0.643l0.384-4.226 17.754-17.747 5.548 5.547-17.749 17.746-4.226 0.384c-0.047 0.004-0.095 0.006-0.143 0.006zM26.394 11.153l-5.547-5.547 3.327-3.327c0.146-0.146 0.319-0.262 0.509-0.34s0.395-0.12 0.601-0.12 0.41 0.041 0.601 0.12c0.191 0.079 0.363 0.195 0.509 0.34l3.327 3.327c0.146 0.146 0.261 0.319 0.34 0.509s0.12 0.395 0.12 0.601-0.041 0.41-0.12 0.601c-0.079 0.19-0.195 0.363-0.34 0.509l-3.327 3.327z"></path>
</symbol>
<symbol id="icon-profilePhotoCamera" viewBox="0 0 30 32">
<path fill="#f59256" style="fill: var(--color1, #f59256)" d="M15.158 12.982c-2.519 0-4.561 2.042-4.561 4.561s2.042 4.561 4.561 4.561c2.519 0 4.561-2.042 4.561-4.561s-2.042-4.561-4.561-4.561z"></path>
<path fill="#f59256" style="fill: var(--color1, #f59256)" d="M11.298 0.351c-1.938 0-3.509 1.571-3.509 3.509v0.251c0 0.637-0.516 1.153-1.153 1.153-3.627 0-6.566 2.94-6.566 6.566v6.471c0 2.25-0 4.015 0.134 5.424 0.137 1.437 0.42 2.613 1.055 3.65 0.665 1.086 1.578 1.999 2.664 2.664 1.037 0.635 2.213 0.919 3.65 1.055 1.409 0.134 3.173 0.134 5.424 0.134h4.321c2.25 0 4.014 0 5.424-0.134 1.437-0.137 2.613-0.42 3.65-1.055 1.086-0.665 1.999-1.578 2.664-2.664 0.635-1.037 0.919-2.213 1.055-3.65 0.134-1.409 0.134-3.174 0.134-5.424v-6.471c0-3.627-2.94-6.566-6.566-6.566-0.637 0-1.153-0.516-1.153-1.153v-0.251c0-1.938-1.571-3.509-3.509-3.509h-7.719zM8.491 17.544c0-3.682 2.985-6.667 6.667-6.667s6.667 2.985 6.667 6.667c0 3.682-2.985 6.667-6.667 6.667s-6.667-2.985-6.667-6.667zM23.579 13.333c-0.775 0-1.404-0.628-1.404-1.404s0.628-1.403 1.404-1.403c0.775 0 1.403 0.628 1.403 1.403s-0.628 1.404-1.403 1.404z"></path>
</symbol>
<symbol id="icon-remov-pets" viewBox="0 0 29 32">
<path d="M12.364 5.091h4.364c0-0.579-0.23-1.134-0.639-1.543s-0.964-0.639-1.543-0.639c-0.579 0-1.134 0.23-1.543 0.639s-0.639 0.964-0.639 1.543zM10.182 5.091c0-1.157 0.46-2.267 1.278-3.086s1.928-1.278 3.086-1.278c1.157 0 2.267 0.46 3.086 1.278s1.278 1.928 1.278 3.086h8.727c0.289 0 0.567 0.115 0.771 0.32s0.32 0.482 0.32 0.771-0.115 0.567-0.32 0.771c-0.204 0.205-0.482 0.32-0.771 0.32h-1.231l-2.629 19.283c-0.178 1.307-0.824 2.505-1.818 3.372s-2.268 1.345-3.587 1.345h-7.654c-1.319 0-2.593-0.478-3.587-1.345s-1.639-2.065-1.818-3.372l-2.629-19.283h-1.231c-0.289 0-0.567-0.115-0.771-0.32s-0.32-0.482-0.32-0.771c0-0.289 0.115-0.567 0.32-0.771s0.482-0.32 0.771-0.32h8.727zM12.364 12.727c0-0.289-0.115-0.567-0.32-0.771s-0.482-0.32-0.771-0.32c-0.289 0-0.567 0.115-0.771 0.32s-0.32 0.482-0.32 0.771v10.909c0 0.289 0.115 0.567 0.32 0.771s0.482 0.32 0.771 0.32 0.567-0.115 0.771-0.32c0.205-0.204 0.32-0.482 0.32-0.771v-10.909zM17.818 11.636c-0.289 0-0.567 0.115-0.771 0.32s-0.32 0.482-0.32 0.771v10.909c0 0.289 0.115 0.567 0.32 0.771s0.482 0.32 0.771 0.32 0.567-0.115 0.771-0.32c0.205-0.204 0.32-0.482 0.32-0.771v-10.909c0-0.289-0.115-0.567-0.32-0.771s-0.482-0.32-0.771-0.32z"></path>
</symbol>
<symbol id="icon-loop" viewBox="0 0 32 32">
<path d="M27.802 5.197c-2.925-3.194-7.13-5.197-11.803-5.197-8.837 0-16 7.163-16 16h3c0-7.18 5.82-13 13-13 3.844 0 7.298 1.669 9.678 4.322l-4.678 4.678h11v-11l-4.198 4.197z"></path>
<path d="M29 16c0 7.18-5.82 13-13 13-3.844 0-7.298-1.669-9.678-4.322l4.678-4.678h-11v11l4.197-4.197c2.925 3.194 7.13 5.197 11.803 5.197 8.837 0 16-7.163 16-16h-3z"></path>
</symbol>
<symbol id="icon-LogOut" viewBox="0 0 32 32">
<path fill="#f59256" style="fill: var(--color1, #f59256); stroke: var(--color2, #fff)" stroke="#fff" stroke-linejoin="miter" stroke-linecap="butt" stroke-miterlimit="4" stroke-width="0.5333" d="M26.769 11.242v-0c0.384-0.384 1.007-0.384 1.391 0l2.799 2.799c1.115 1.114 1.115 2.928 0 4.042l-2.799 2.799c-0.192 0.192-0.443 0.288-0.695 0.288s-0.503-0.096-0.695-0.288v0c-0.384-0.384-0.384-1.006 0-1.39v0l2.446-2.446h-15.653c-0.543 0-0.983-0.44-0.983-0.983s0.44-0.983 0.983-0.983h15.653l-2.446-2.447c-0.384-0.384-0.384-1.006 0-1.39zM22.358 24.5v2.5c0 2.61-2.124 4.733-4.733 4.733h-12.563c-2.61 0-4.733-2.124-4.733-4.733v-22c0-2.61 2.124-4.733 4.733-4.733h12.563c2.61 0 4.733 2.124 4.733 4.733v2.5c0 0.543-0.44 0.983-0.983 0.983s-0.983-0.44-0.983-0.983v-2.5c0-1.526-1.241-2.767-2.767-2.767h-12.563c-1.526 0-2.767 1.241-2.767 2.767v22c0 1.526 1.241 2.767 2.767 2.767h12.563c1.526 0 2.767-1.241 2.767-2.767v-2.5c0-0.543 0.44-0.983 0.983-0.983s0.983 0.44 0.983 0.983z"></path>
</symbol>
<symbol id="icon-save" viewBox="0 0 32 32">
<path d="M27.624 20.955l-0.958 5.072h-21.332l-0.958-5.072h-2.385v8.062h28.018v-8.062h-2.385zM27.020 11.946h-7.022v-2.93h-7.994v2.93h-6.955l10.914 11.412 11.057-11.412zM19.997 3.982h-7.994v1.066h7.994v-1.066zM19.997 5.973h-7.994v2.038h7.994v-2.038z"></path>
</symbol>
<symbol id="icon-exit" viewBox="0 0 31 32">
<path d="M18.051 16l12.058-12.058c0.238-0.278 0.363-0.636 0.349-1.002s-0.166-0.713-0.425-0.972c-0.259-0.259-0.606-0.411-0.972-0.425s-0.724 0.11-1.002 0.349l-12.058 12.058-12.058-12.073c-0.274-0.274-0.645-0.428-1.033-0.428s-0.759 0.154-1.033 0.428c-0.274 0.274-0.428 0.645-0.428 1.033s0.154 0.759 0.428 1.033l12.073 12.058-12.073 12.058c-0.152 0.13-0.276 0.291-0.363 0.471s-0.136 0.377-0.144 0.577 0.026 0.4 0.099 0.587c0.073 0.187 0.184 0.356 0.326 0.498s0.311 0.253 0.498 0.326 0.386 0.107 0.587 0.099c0.2-0.008 0.397-0.057 0.577-0.144s0.341-0.211 0.471-0.363l12.073-12.058 12.058 12.058c0.278 0.238 0.636 0.363 1.002 0.349s0.713-0.166 0.972-0.425 0.411-0.606 0.425-0.972c0.014-0.366-0.11-0.724-0.349-1.002l-12.058-12.058z"></path>
</symbol>
<symbol id="icon-bigPlus" viewBox="0 0 32 32">
<path stroke-linejoin="miter" stroke-linecap="round" stroke-miterlimit="4" stroke-width="1.28" d="M16 31.36v-15.36M16 16v-15.36M16 16h15.36M16 16h-15.36"></path>
</symbol>
</defs>
</svg>

